<svg width="151" height="192" viewBox="0 0 151 192" fill="none" xmlns="http://www.w3.org/2000/svg">
<path d="M-31 5C-31 7.76142 -33.2386 10 -36 10C-38.7614 10 -41 7.76142 -41 5C-41 2.23858 -38.7614 0 -36 0C-33.2386 0 -31 2.23858 -31 5Z" fill="#2D3748"/>
<path d="M-31 109C-31 111.761 -33.2386 114 -36 114C-38.7614 114 -41 111.761 -41 109C-41 106.239 -38.7614 104 -36 104C-33.2386 104 -31 106.239 -31 109Z" fill="#2D3748"/>
<path d="M-31 57C-31 59.7614 -33.2386 62 -36 62C-38.7614 62 -41 59.7614 -41 57C-41 54.2386 -38.7614 52 -36 52C-33.2386 52 -31 54.2386 -31 57Z" fill="#2D3748"/>
<path d="M-31 161C-31 163.761 -33.2386 166 -36 166C-38.7614 166 -41 163.761 -41 161C-41 158.239 -38.7614 156 -36 156C-33.2386 156 -31 158.239 -31 161Z" fill="#2D3748"/>
<path d="M-31 31C-31 33.7614 -33.2386 36 -36 36C-38.7614 36 -41 33.7614 -41 31C-41 28.2386 -38.7614 26 -36 26C-33.2386 26 -31 28.2386 -31 31Z" fill="#2D3748"/>
<path d="M-31 135C-31 137.761 -33.2386 140 -36 140C-38.7614 140 -41 137.761 -41 135C-41 132.239 -38.7614 130 -36 130C-33.2386 130 -31 132.239 -31 135Z" fill="#2D3748"/>
<path d="M-31 83C-31 85.7614 -33.2386 88 -36 88C-38.7614 88 -41 85.7614 -41 83C-41 80.2386 -38.7614 78 -36 78C-33.2386 78 -31 80.2386 -31 83Z" fill="#2D3748"/>
<path d="M-31 187C-31 189.761 -33.2386 192 -36 192C-38.7614 192 -41 189.761 -41 187C-41 184.239 -38.7614 182 -36 182C-33.2386 182 -31 184.239 -31 187Z" fill="#2D3748"/>
<path d="M73 5C73 7.76142 70.7614 10 68 10C65.2386 10 63 7.76142 63 5C63 2.23858 65.2386 0 68 0C70.7614 0 73 2.23858 73 5Z" fill="#2D3748"/>
<path d="M73 109C73 111.761 70.7614 114 68 114C65.2386 114 63 111.761 63 109C63 106.239 65.2386 104 68 104C70.7614 104 73 106.239 73 109Z" fill="#2D3748"/>
<path d="M73 57C73 59.7614 70.7614 62 68 62C65.2386 62 63 59.7614 63 57C63 54.2386 65.2386 52 68 52C70.7614 52 73 54.2386 73 57Z" fill="#2D3748"/>
<path d="M73 161C73 163.761 70.7614 166 68 166C65.2386 166 63 163.761 63 161C63 158.239 65.2386 156 68 156C70.7614 156 73 158.239 73 161Z" fill="#2D3748"/>
<path d="M73 31C73 33.7614 70.7614 36 68 36C65.2386 36 63 33.7614 63 31C63 28.2386 65.2386 26 68 26C70.7614 26 73 28.2386 73 31Z" fill="#2D3748"/>
<path d="M73 135C73 137.761 70.7614 140 68 140C65.2386 140 63 137.761 63 135C63 132.239 65.2386 130 68 130C70.7614 130 73 132.239 73 135Z" fill="#2D3748"/>
<path d="M73 83C73 85.7614 70.7614 88 68 88C65.2386 88 63 85.7614 63 83C63 80.2386 65.2386 78 68 78C70.7614 78 73 80.2386 73 83Z" fill="#2D3748"/>
<path d="M73 187C73 189.761 70.7614 192 68 192C65.2386 192 63 189.761 63 187C63 184.239 65.2386 182 68 182C70.7614 182 73 184.239 73 187Z" fill="#2D3748"/>
<path d="M-5 5C-5 7.76142 -7.23858 10 -10 10C-12.7614 10 -15 7.76142 -15 5C-15 2.23858 -12.7614 0 -10 0C-7.23858 0 -5 2.23858 -5 5Z" fill="#2D3748"/>
<path d="M-5 109C-5 111.761 -7.23858 114 -10 114C-12.7614 114 -15 111.761 -15 109C-15 106.239 -12.7614 104 -10 104C-7.23858 104 -5 106.239 -5 109Z" fill="#2D3748"/>
<path d="M-5 57C-5 59.7614 -7.23858 62 -10 62C-12.7614 62 -15 59.7614 -15 57C-15 54.2386 -12.7614 52 -10 52C-7.23858 52 -5 54.2386 -5 57Z" fill="#2D3748"/>
<path d="M-5 161C-5 163.761 -7.23858 166 -10 166C-12.7614 166 -15 163.761 -15 161C-15 158.239 -12.7614 156 -10 156C-7.23858 156 -5 158.239 -5 161Z" fill="#2D3748"/>
<path d="M-5 31C-5 33.7614 -7.23858 36 -10 36C-12.7614 36 -15 33.7614 -15 31C-15 28.2386 -12.7614 26 -10 26C-7.23858 26 -5 28.2386 -5 31Z" fill="#2D3748"/>
<path d="M-5 135C-5 137.761 -7.23858 140 -10 140C-12.7614 140 -15 137.761 -15 135C-15 132.239 -12.7614 130 -10 130C-7.23858 130 -5 132.239 -5 135Z" fill="#2D3748"/>
<path d="M-5 83C-5 85.7614 -7.23858 88 -10 88C-12.7614 88 -15 85.7614 -15 83C-15 80.2386 -12.7614 78 -10 78C-7.23858 78 -5 80.2386 -5 83Z" fill="#2D3748"/>
<path d="M-5 187C-5 189.761 -7.23858 192 -10 192C-12.7614 192 -15 189.761 -15 187C-15 184.239 -12.7614 182 -10 182C-7.23858 182 -5 184.239 -5 187Z" fill="#2D3748"/>
<path d="M99 5C99 7.76142 96.7614 10 94 10C91.2386 10 89 7.76142 89 5C89 2.23858 91.2386 0 94 0C96.7614 0 99 2.23858 99 5Z" fill="#2D3748"/>
<path d="M99 109C99 111.761 96.7614 114 94 114C91.2386 114 89 111.761 89 109C89 106.239 91.2386 104 94 104C96.7614 104 99 106.239 99 109Z" fill="#2D3748"/>
<path d="M99 57C99 59.7614 96.7614 62 94 62C91.2386 62 89 59.7614 89 57C89 54.2386 91.2386 52 94 52C96.7614 52 99 54.2386 99 57Z" fill="#2D3748"/>
<path d="M99 161C99 163.761 96.7614 166 94 166C91.2386 166 89 163.761 89 161C89 158.239 91.2386 156 94 156C96.7614 156 99 158.239 99 161Z" fill="#2D3748"/>
<path d="M99 31C99 33.7614 96.7614 36 94 36C91.2386 36 89 33.7614 89 31C89 28.2386 91.2386 26 94 26C96.7614 26 99 28.2386 99 31Z" fill="#2D3748"/>
<path d="M99 135C99 137.761 96.7614 140 94 140C91.2386 140 89 137.761 89 135C89 132.239 91.2386 130 94 130C96.7614 130 99 132.239 99 135Z" fill="#2D3748"/>
<path d="M99 83C99 85.7614 96.7614 88 94 88C91.2386 88 89 85.7614 89 83C89 80.2386 91.2386 78 94 78C96.7614 78 99 80.2386 99 83Z" fill="#2D3748"/>
<path d="M99 187C99 189.761 96.7614 192 94 192C91.2386 192 89 189.761 89 187C89 184.239 91.2386 182 94 182C96.7614 182 99 184.239 99 187Z" fill="#2D3748"/>
<path d="M21 5C21 7.76142 18.7614 10 16 10C13.2386 10 11 7.76142 11 5C11 2.23858 13.2386 0 16 0C18.7614 0 21 2.23858 21 5Z" fill="#2D3748"/>
<path d="M21 109C21 111.761 18.7614 114 16 114C13.2386 114 11 111.761 11 109C11 106.239 13.2386 104 16 104C18.7614 104 21 106.239 21 109Z" fill="#2D3748"/>
<path d="M21 57C21 59.7614 18.7614 62 16 62C13.2386 62 11 59.7614 11 57C11 54.2386 13.2386 52 16 52C18.7614 52 21 54.2386 21 57Z" fill="#2D3748"/>
<path d="M21 161C21 163.761 18.7614 166 16 166C13.2386 166 11 163.761 11 161C11 158.239 13.2386 156 16 156C18.7614 156 21 158.239 21 161Z" fill="#2D3748"/>
<path d="M21 31C21 33.7614 18.7614 36 16 36C13.2386 36 11 33.7614 11 31C11 28.2386 13.2386 26 16 26C18.7614 26 21 28.2386 21 31Z" fill="#2D3748"/>
<path d="M21 135C21 137.761 18.7614 140 16 140C13.2386 140 11 137.761 11 135C11 132.239 13.2386 130 16 130C18.7614 130 21 132.239 21 135Z" fill="#2D3748"/>
<path d="M21 83C21 85.7614 18.7614 88 16 88C13.2386 88 11 85.7614 11 83C11 80.2386 13.2386 78 16 78C18.7614 78 21 80.2386 21 83Z" fill="#2D3748"/>
<path d="M21 187C21 189.761 18.7614 192 16 192C13.2386 192 11 189.761 11 187C11 184.239 13.2386 182 16 182C18.7614 182 21 184.239 21 187Z" fill="#2D3748"/>
<path d="M125 5C125 7.76142 122.761 10 120 10C117.239 10 115 7.76142 115 5C115 2.23858 117.239 0 120 0C122.761 0 125 2.23858 125 5Z" fill="#2D3748"/>
<path d="M125 109C125 111.761 122.761 114 120 114C117.239 114 115 111.761 115 109C115 106.239 117.239 104 120 104C122.761 104 125 106.239 125 109Z" fill="#2D3748"/>
<path d="M125 57C125 59.7614 122.761 62 120 62C117.239 62 115 59.7614 115 57C115 54.2386 117.239 52 120 52C122.761 52 125 54.2386 125 57Z" fill="#2D3748"/>
<path d="M125 161C125 163.761 122.761 166 120 166C117.239 166 115 163.761 115 161C115 158.239 117.239 156 120 156C122.761 156 125 158.239 125 161Z" fill="#2D3748"/>
<path d="M125 31C125 33.7614 122.761 36 120 36C117.239 36 115 33.7614 115 31C115 28.2386 117.239 26 120 26C122.761 26 125 28.2386 125 31Z" fill="#2D3748"/>
<path d="M125 135C125 137.761 122.761 140 120 140C117.239 140 115 137.761 115 135C115 132.239 117.239 130 120 130C122.761 130 125 132.239 125 135Z" fill="#2D3748"/>
<path d="M125 83C125 85.7614 122.761 88 120 88C117.239 88 115 85.7614 115 83C115 80.2386 117.239 78 120 78C122.761 78 125 80.2386 125 83Z" fill="#2D3748"/>
<path d="M125 187C125 189.761 122.761 192 120 192C117.239 192 115 189.761 115 187C115 184.239 117.239 182 120 182C122.761 182 125 184.239 125 187Z" fill="#2D3748"/>
<path d="M47 5C47 7.76142 44.7614 10 42 10C39.2386 10 37 7.76142 37 5C37 2.23858 39.2386 0 42 0C44.7614 0 47 2.23858 47 5Z" fill="#2D3748"/>
<path d="M47 109C47 111.761 44.7614 114 42 114C39.2386 114 37 111.761 37 109C37 106.239 39.2386 104 42 104C44.7614 104 47 106.239 47 109Z" fill="#2D3748"/>
<path d="M47 57C47 59.7614 44.7614 62 42 62C39.2386 62 37 59.7614 37 57C37 54.2386 39.2386 52 42 52C44.7614 52 47 54.2386 47 57Z" fill="#2D3748"/>
<path d="M47 161C47 163.761 44.7614 166 42 166C39.2386 166 37 163.761 37 161C37 158.239 39.2386 156 42 156C44.7614 156 47 158.239 47 161Z" fill="#2D3748"/>
<path d="M47 31C47 33.7614 44.7614 36 42 36C39.2386 36 37 33.7614 37 31C37 28.2386 39.2386 26 42 26C44.7614 26 47 28.2386 47 31Z" fill="#2D3748"/>
<path d="M47 135C47 137.761 44.7614 140 42 140C39.2386 140 37 137.761 37 135C37 132.239 39.2386 130 42 130C44.7614 130 47 132.239 47 135Z" fill="#2D3748"/>
<path d="M47 83C47 85.7614 44.7614 88 42 88C39.2386 88 37 85.7614 37 83C37 80.2386 39.2386 78 42 78C44.7614 78 47 80.2386 47 83Z" fill="#2D3748"/>
<path d="M47 187C47 189.761 44.7614 192 42 192C39.2386 192 37 189.761 37 187C37 184.239 39.2386 182 42 182C44.7614 182 47 184.239 47 187Z" fill="#2D3748"/>
<path d="M151 5C151 7.76142 148.761 10 146 10C143.239 10 141 7.76142 141 5C141 2.23858 143.239 0 146 0C148.761 0 151 2.23858 151 5Z" fill="#2D3748"/>
<path d="M151 109C151 111.761 148.761 114 146 114C143.239 114 141 111.761 141 109C141 106.239 143.239 104 146 104C148.761 104 151 106.239 151 109Z" fill="#2D3748"/>
<path d="M151 57C151 59.7614 148.761 62 146 62C143.239 62 141 59.7614 141 57C141 54.2386 143.239 52 146 52C148.761 52 151 54.2386 151 57Z" fill="#2D3748"/>
<path d="M151 161C151 163.761 148.761 166 146 166C143.239 166 141 163.761 141 161C141 158.239 143.239 156 146 156C148.761 156 151 158.239 151 161Z" fill="#2D3748"/>
<path d="M151 31C151 33.7614 148.761 36 146 36C143.239 36 141 33.7614 141 31C141 28.2386 143.239 26 146 26C148.761 26 151 28.2386 151 31Z" fill="#2D3748"/>
<path d="M151 135C151 137.761 148.761 140 146 140C143.239 140 141 137.761 141 135C141 132.239 143.239 130 146 130C148.761 130 151 132.239 151 135Z" fill="#2D3748"/>
<path d="M151 83C151 85.7614 148.761 88 146 88C143.239 88 141 85.7614 141 83C141 80.2386 143.239 78 146 78C148.761 78 151 80.2386 151 83Z" fill="#2D3748"/>
<path d="M151 187C151 189.761 148.761 192 146 192C143.239 192 141 189.761 141 187C141 184.239 143.239 182 146 182C148.761 182 151 184.239 151 187Z" fill="#2D3748"/>
</svg>
