<svg width="1440" height="1024" viewBox="0 0 1440 1024" fill="none" xmlns="http://www.w3.org/2000/svg">
<rect width="1440" height="1024" fill="#CBD5E0"/>
<path d="M507 561L629.293 438.707C639.295 428.708 652.858 423.091 667 423.091C681.142 423.091 694.705 428.708 704.706 438.707L827 561M773.666 507.667L815.96 465.373C825.961 455.375 839.524 449.758 853.666 449.758C867.808 449.758 881.371 455.375 891.373 465.373L933.666 507.667M773.666 347.667H773.933M560.333 667.666H880.333C894.478 667.666 908.043 662.047 918.045 652.045C928.047 642.044 933.666 628.478 933.666 614.333V294.333C933.666 280.188 928.047 266.623 918.045 256.621C908.043 246.619 894.478 241 880.333 241H560.333C546.188 241 532.623 246.619 522.621 256.621C512.619 266.623 507 280.188 507 294.333V614.333C507 628.478 512.619 642.044 522.621 652.045C532.623 662.047 546.188 667.666 560.333 667.666Z" stroke="#A0AEC0" stroke-width="32" stroke-linecap="round" stroke-linejoin="round"/>
<path d="M508.466 786.182V856H495.716L465.341 812.057H464.83V856H450.068V786.182H463.023L493.159 830.091H493.773V786.182H508.466ZM594.421 821.091C594.421 828.705 592.978 835.182 590.091 840.523C587.228 845.864 583.33 849.943 578.398 852.761C573.466 855.557 567.91 856.955 561.728 856.955C555.523 856.955 549.955 855.545 545.023 852.727C540.091 849.909 536.194 845.83 533.33 840.489C530.466 835.125 529.035 828.659 529.035 821.091C529.035 813.477 530.466 807 533.33 801.659C536.194 796.318 540.091 792.25 545.023 789.455C549.955 786.636 555.523 785.227 561.728 785.227C567.91 785.227 573.466 786.636 578.398 789.455C583.33 792.25 587.228 796.318 590.091 801.659C592.978 807 594.421 813.477 594.421 821.091ZM579.455 821.091C579.455 813.682 577.841 808.034 574.614 804.148C571.387 800.239 567.091 798.284 561.728 798.284C556.364 798.284 552.069 800.239 548.841 804.148C545.614 808.034 544.001 813.682 544.001 821.091C544.001 828.477 545.614 834.125 548.841 838.034C552.069 841.943 556.364 843.898 561.728 843.898C567.091 843.898 571.387 841.943 574.614 838.034C577.841 834.125 579.455 828.477 579.455 821.091ZM661.536 786.182V856H646.774V786.182H661.536ZM683.281 786.182H701.485L720.712 833.091H721.531L740.758 786.182H758.962V856H744.644V810.557H744.065L725.997 855.659H716.247L698.178 810.386H697.599V856H683.281V786.182ZM792.759 856H776.94L801.043 786.182H820.065L844.134 856H828.315L823.134 840.08H797.94L792.759 856ZM801.69 828.557H819.418L810.827 802.136H810.281L801.69 828.557ZM905.151 808.75C904.219 805.477 902.492 802.92 899.969 801.08C897.469 799.216 894.322 798.284 890.526 798.284C885.185 798.284 880.856 800.261 877.538 804.216C874.242 808.148 872.594 813.75 872.594 821.023C872.594 828.318 874.219 833.955 877.469 837.932C880.719 841.909 885.117 843.898 890.663 843.898C895.572 843.898 899.424 842.625 902.219 840.08C905.038 837.511 906.492 834.068 906.583 829.75H891.583V818.636H920.799V827.432C920.799 833.545 919.503 838.818 916.913 843.25C914.322 847.659 910.753 851.045 906.208 853.409C901.685 855.773 896.481 856.955 890.594 856.955C884.049 856.955 878.299 855.511 873.344 852.625C868.39 849.716 864.526 845.591 861.753 840.25C859.003 834.886 857.628 828.523 857.628 821.159C857.628 813.614 859.072 807.159 861.958 801.795C864.844 796.432 868.753 792.33 873.685 789.489C878.617 786.648 884.151 785.227 890.288 785.227C895.56 785.227 900.333 786.227 904.606 788.227C908.878 790.227 912.378 793 915.106 796.545C917.833 800.068 919.515 804.136 920.151 808.75H905.151ZM941.487 856V786.182H988.532V798.352H956.248V814.989H986.112V827.159H956.248V843.83H988.669V856H941.487Z" fill="#A0AEC0"/>
</svg>
